<svg height="464pt" viewBox="-32 0 464 464.20996" width="464pt" xmlns="http://www.w3.org/2000/svg"><path d="m192.34375 278.257812-16 64c-.675781 2.726563.121094 5.605469 2.105469 7.589844 1.988281 1.984375 4.867187 2.785156 7.589843 2.105469l32-8c2.832032-.636719 5.097657-2.757813 5.917969-5.539063.820313-2.785156.070313-5.796874-1.960937-7.867187s-5.027344-2.878906-7.828125-2.113281l-19.070313 4.800781 12.800782-51.070313c.765624-2.800781-.042969-5.796874-2.113282-7.828124-2.074218-2.03125-5.082031-2.785157-7.867187-1.960938-2.78125.820312-4.902344 3.082031-5.539063 5.914062zm0 0"/><path d="m162.066406 256.449219c-4.28125-1.085938-8.632812 1.503906-9.722656 5.785156-.0625.257813-6.832031 25.960937-24.238281 25.960937-17.410157 0-24.175781-25.703124-24.242188-25.960937-1.074219-4.285156-5.421875-6.886719-9.707031-5.8125-4.285156 1.078125-6.886719 5.421875-5.8125 9.707031.386719 1.5625 9.855469 38.066406 39.761719 38.066406 29.902343 0 39.375-36.503906 39.757812-38.066406 1.0625-4.273437-1.53125-8.597656-5.796875-9.679687zm0 0"/><path d="m272.105469 304.195312c29.902343 0 39.375-36.503906 39.757812-38.066406 1.078125-4.285156-1.523437-8.628906-5.808593-9.707031-4.289063-1.074219-8.632813 1.527344-9.710938 5.8125-.0625.257813-6.832031 25.960937-24.238281 25.960937-17.410157 0-24.175781-25.703124-24.242188-25.960937-1.074219-4.285156-5.421875-6.886719-9.707031-5.8125-4.285156 1.078125-6.886719 5.421875-5.8125 9.707031.386719 1.5625 9.855469 38.066406 39.761719 38.066406zm0 0"/><path d="m368.105469 217.164062v-48.96875c0-5.464843-.199219-21.695312-64-32.386718v-31.613282c-.039063-24.09375-15.464844-45.46875-38.320313-53.097656 4.082032-5.457031 6.300782-12.085937 6.320313-18.902344 0-17.675781-14.328125-32-32-32s-32 14.324219-32 32c.019531 6.816407 2.234375 13.445313 6.320312 18.902344-5.09375 1.699219-9.914062 4.125-14.3125 7.199219-4.40625-3.074219-9.234375-5.5-14.335937-7.199219 9.828125-13.214844 8.023437-31.730468-4.175782-42.796875-12.199218-11.066406-30.804687-11.066406-43 0-12.199218 11.066407-14.007812 29.582031-4.175781 42.796875-22.855469 7.628906-38.28125 29.003906-38.320312 53.097656v31.613282c-63.800781 10.691406-64 26.921875-64 32.386718v48.96875c-18.234375 4.460938-32 23.832032-32 47.03125 0 23.503907 14.160156 43.070313 32.800781 47.199219 7.808594 86.53125 80.34375 152.816407 167.230469 152.816407s159.421875-66.285157 167.230469-152.816407c18.578124-4.128906 32.738281-23.695312 32.738281-47.199219 0-23.199218-13.769531-42.570312-32-47.03125zm-336 77.0625c-10.535157-6.226562-16.710938-17.816406-16-30.03125-.710938-12.21875 5.464843-23.808593 16-30.03125zm208-278.03125c8.835937 0 16 7.164063 16 16 0 8.835938-7.164063 16-16 16-8.835938 0-16-7.164062-16-16 0-8.835937 7.164062-16 16-16zm-48 88c.027343-22.082031 17.917969-39.976562 40-40h16c22.078125.023438 39.972656 17.917969 40 40v56h-96zm-32-88c8.835937 0 16 7.164063 16 16 0 8.835938-7.164063 16-16 16-8.835938 0-16-7.164062-16-16 0-8.835937 7.164062-16 16-16zm-48 88c.027343-22.082031 17.917969-39.976562 40-40h16c7.03125.019532 13.929687 1.898438 20 5.445313-7.777344 9.839844-12.007813 22.011719-12 34.554687v56h-64zm240 192c0 83.945313-68.054688 152-152 152-83.949219 0-152-68.054687-152-152v-109.105468c40.871093 20.792968 146.472656 21.105468 152 21.105468 5.527343 0 111.128906-.3125 152-21.105468zm-152-104c-94.402344 0-148.207031-15.546874-152-23.546874v-.15625c1.183593-2.515626 12.375-10.234376 48-16.480469v16.183593c0 4.417969 3.582031 8 8 8h192c4.417969 0 8-3.582031 8-8v-16.183593c36 6.308593 47.078125 14.085937 48.054687 15.796875-3.535156 8.753906-57.359375 24.386718-152.054687 24.386718zm168 102.03125v-60.0625c10.535156 6.222657 16.710937 17.8125 16 30.03125.710937 12.214844-5.464844 23.804688-16 30.03125zm0 0"/></svg>