<svg height="480pt" viewBox="-40 0 480 480.11513" width="480pt" xmlns="http://www.w3.org/2000/svg"><path d="m192.296875 294.15625-16 64c-.597656 2.390625-.0625 4.921875 1.453125 6.863281 1.515625 1.945313 3.84375 3.078125 6.308594 3.078125.65625 0 1.308594-.078125 1.941406-.238281l32-8c2.792969-.679687 5.003906-2.800781 5.800781-5.558594.792969-2.761719.050781-5.734375-1.953125-7.792969-2-2.058593-4.953125-2.886718-7.734375-2.167968l-19.054687 4.757812 12.757812-51.054687c.71875-2.78125-.109375-5.730469-2.167968-7.734375-2.058594-2-5.03125-2.746094-7.792969-1.953125-2.757813.796875-4.878907 3.007812-5.558594 5.800781zm0 0"/><path d="m162.015625 272.355469c-4.277344-1.085938-8.628906 1.503906-9.71875 5.785156-.0625.261719-6.832031 25.957031-24.238281 25.957031-17.410156 0-24.175782-25.695312-24.242188-25.957031-1.078125-4.285156-5.425781-6.886719-9.710937-5.808594-4.285157 1.078125-6.886719 5.425781-5.808594 9.710938.394531 1.550781 9.855469 38.054687 39.761719 38.054687 29.902344 0 39.367187-36.503906 39.757812-38.054687 1.066406-4.273438-1.527344-8.605469-5.800781-9.6875zm0 0"/><path d="m272.058594 320.097656c29.902344 0 39.367187-36.503906 39.757812-38.054687 1.078125-4.285157-1.519531-8.632813-5.808594-9.710938-4.285156-1.078125-8.632812 1.523438-9.710937 5.808594-.0625.261719-6.832031 25.957031-24.238281 25.957031-17.410156 0-24.175782-25.695312-24.242188-25.957031-1.078125-4.285156-5.425781-6.886719-9.710937-5.808594-4.285157 1.078125-6.886719 5.425781-5.808594 9.710938.394531 1.550781 9.855469 38.054687 39.761719 38.054687zm0 0"/><path d="m368.058594 233.066406v-48.96875c0-17.597656-32-27.476562-68.128906-32.992187l15.703124-7.847657c2.714844-1.355468 4.425782-4.125 4.425782-7.160156v-32c0-4.417968-3.582032-8-8-8-4.417969 0-8 3.582032-8 8v27.058594l-16 8v-44.527344c11.019531-3.898437 17.628906-15.167968 15.652344-26.6875-1.976563-11.519531-11.964844-19.941406-23.652344-19.941406-11.691406 0-21.679688 8.421875-23.65625 19.941406-1.976563 11.519532 4.636718 22.789063 15.65625 26.6875v53.046875c-26.648438-2.578125-51.59375-3.296875-64-3.496093v-27.136719l27.574218-13.742188c2.726563-1.363281 4.441407-4.15625 4.425782-7.203125v-25.46875c11.019531-3.898437 17.628906-15.167968 15.652344-26.6875-1.976563-11.519531-11.964844-19.941406-23.652344-19.941406-11.691406 0-21.679688 8.421875-23.65625 19.941406-1.976563 11.519532 4.636718 22.789063 15.65625 26.6875v20.527344l-16 8v-11.058594c0-2.121094-.84375-4.15625-2.34375-5.652344l-29.65625-29.65625v-6.160156c11.019531-3.898437 17.628906-15.167968 15.652344-26.6875-1.976563-11.519531-11.964844-19.941406-23.652344-19.941406-11.691406 0-21.679688 8.421875-23.65625 19.941406-1.976563 11.519532 4.636718 22.789063 15.65625 26.6875v9.46875c0 2.125.84375 4.15625 2.34375 5.65625l29.65625 29.65625v52.800782c-8.839844.144531-24 .542968-41.671875 1.695312l5.246093-2.613281c2.722657-1.363281 4.4375-4.148438 4.425782-7.195313v-32c0-4.417968-3.582032-8-8-8-4.417969 0-8 3.582032-8 8v27.058594l-16 8v-44.527344c11.019531-3.898437 17.628906-15.167968 15.652344-26.6875-1.976563-11.519531-11.964844-19.941406-23.652344-19.941406-11.691406 0-21.679688 8.421875-23.65625 19.941406-1.976563 11.519532 4.636718 22.789063 15.65625 26.6875v14.160156l-2.34375-2.34375c-3.140625-3.035156-8.128906-2.992187-11.214844.09375-3.085938 3.085938-3.128906 8.078126-.097656 11.214844l13.65625 13.65625v18.050782c-40.640625 5.109374-80 15.09375-80 34.636718v48.96875c-18.234375 4.464844-32.0000002 23.832032-32.0000002 47.03125 0 23.503906 14.1601562 43.074219 32.8007812 47.203125 7.808594 86.53125 80.34375 152.8125 167.230469 152.8125 86.886718 0 159.421875-66.28125 167.230468-152.8125 18.578126-4.128906 32.738282-23.699219 32.738282-47.203125 0-23.199218-13.769532-42.566406-32-47.03125zm-136-192.96875c4.417968 0 8 3.582032 8 8 0 4.421875-3.582032 8-8 8-4.417969 0-8-3.578125-8-8 0-4.417968 3.582031-8 8-8zm-64-8c-4.417969 0-8-3.578125-8-8 0-4.417968 3.582031-8 8-8 4.417968 0 8 3.582032 8 8 0 4.421875-3.582032 8-8 8zm-136 278.035156c-10.535156-6.226562-16.710938-17.816406-16-30.035156-.710938-12.214844 5.464844-23.804687 16-30.03125zm248-246.035156c4.417968 0 8 3.582032 8 8 0 4.421875-3.582032 8-8 8-4.417969 0-8-3.578125-8-8 0-4.417968 3.582031-8 8-8zm-160 0c4.417968 0 8 3.582032 8 8 0 4.421875-3.582032 8-8 8-4.417969 0-8-3.578125-8-8 0-4.417968 3.582031-8 8-8zm-72 120.304688c2.398437-5.503906 24.503906-13.671875 64-18.992188v18.6875c0 4.421875 3.582031 8 8 8 4.417968 0 8-3.578125 8-8v-20.550781c18.398437-1.886719 39.78125-3.136719 64-3.367187v23.917968c0 4.421875 3.582031 8 8 8 4.417968 0 8-3.578125 8-8v-23.917968c24.214844.230468 45.597656 1.472656 64 3.359374v20.558594c0 4.421875 3.582031 8 8 8 4.417968 0 8-3.578125 8-8v-18.695312c38.773437 5.226562 60.800781 13.199218 63.871094 18.695312-4.914063 8.800782-58.550782 24-151.871094 24-94.402344 0-148.183594-15.535156-152-23.542968zm304 127.695312c0 83.949219-68.054688 152-152 152-83.949219 0-152-68.050781-152-152v-109.101562c40.871094 20.792968 146.472656 21.101562 152 21.101562s111.128906-.308594 152-21.101562zm16-1.964844v-60.066406c10.535156 6.226563 16.710937 17.816406 16 30.03125.710937 12.21875-5.464844 23.808594-16 30.035156zm0 0"/></svg>