<svg height="480pt" viewBox="-40 0 480 480.01571" width="480pt" xmlns="http://www.w3.org/2000/svg"><path d="m192.246094 294.054688-16 64c-.679688 2.726562.117187 5.609374 2.101562 7.597656 1.988282 1.988281 4.871094 2.789062 7.597656 2.109375l32-8c2.828126-.640625 5.09375-2.757813 5.914063-5.542969.824219-2.785156.070313-5.792969-1.960937-7.867188-2.03125-2.070312-5.027344-2.878906-7.828126-2.113281l-19.070312 4.761719 12.800781-51.054688c1.035157-4.273437-1.566406-8.582031-5.832031-9.648437-4.261719-1.070313-8.589844 1.503906-9.6875 5.757813zm0 0"/><path d="m161.96875 272.257812c-4.28125-1.085937-8.632812 1.5-9.722656 5.78125-.0625.265626-6.832032 25.960938-24.238282 25.960938s-24.175781-25.695312-24.238281-25.960938c-1.078125-4.285156-5.429687-6.886718-9.714843-5.808593-4.285157 1.078125-6.886719 5.429687-5.808594 9.714843.386718 1.550782 9.859375 38.054688 39.761718 38.054688 29.902344 0 39.375-36.503906 39.761719-38.054688 1.0625-4.277343-1.53125-8.609374-5.800781-9.6875zm0 0"/><path d="m272.007812 320c29.902344 0 39.375-36.503906 39.761719-38.054688 1.078125-4.285156-1.523437-8.636718-5.808593-9.714843-4.285157-1.078125-8.636719 1.523437-9.714844 5.808593-.0625.265626-6.832032 25.960938-24.238282 25.960938s-24.175781-25.695312-24.238281-25.960938c-1.078125-4.285156-5.429687-6.886718-9.714843-5.808593-4.285157 1.078125-6.886719 5.429687-5.808594 9.714843.386718 1.550782 9.859375 38.054688 39.761718 38.054688zm0 0"/><path d="m368.007812 232.96875v-48.96875c0-25.527344-66.976562-34.710938-112-38v-10c-.03125-19.6875-10.398437-37.910156-27.304687-48 16.90625-10.089844 27.273437-28.3125 27.304687-48v-24h8c4.417969 0 8-3.582031 8-8s-3.582031-8-8-8h-128c-4.417968 0-8 3.582031-8 8s3.582032 8 8 8h8v24c.03125 19.6875 10.398438 37.910156 27.304688 48-16.90625 10.089844-27.273438 28.3125-27.304688 48v10c-45.023437 3.289062-112 12.472656-112 38v48.96875c-18.230468 4.464844-31.9999995 23.832031-31.9999995 47.03125 0 23.503906 14.1601565 43.070312 32.8007815 47.199219 7.8125 86.535156 80.347656 152.816406 167.230468 152.816406 86.886719 0 159.421876-66.28125 167.234376-152.816406 18.574218-4.128907 32.734374-23.695313 32.734374-47.199219 0-23.199219-13.769531-42.566406-32-47.03125zm-336 77.0625c-10.535156-6.226562-16.710937-17.816406-16-30.03125-.710937-12.214844 5.464844-23.804688 16-30.03125zm128-270.03125v-24h80v24c0 22.089844-17.910156 40-40 40-22.089843 0-40-17.910156-40-40zm40 56c19 .023438 35.371094 13.386719 39.199219 32h-78.398437c3.828125-18.613281 20.199218-31.976562 39.199218-32zm-40 48h80v32h-80zm192 168c0 83.949219-68.050781 152-152 152-83.945312 0-152-68.050781-152-152v-109.105469c40.871094 20.792969 146.472657 21.105469 152 21.105469 5.527344 0 111.128907-.3125 152-21.105469zm-152-104c-94.398437 0-148.207031-15.542969-152-23.542969v-.152343c2.273438-5.097657 29.480469-17.226563 96-22.242188v13.9375h-8c-4.417968 0-8 3.582031-8 8s3.582032 8 8 8h128c4.417969 0 8-3.582031 8-8s-3.582031-8-8-8h-8v-13.9375c66.847657 5.042969 94.023438 17.242188 96.054688 21.554688-3.535156 8.75-57.359375 24.382812-152.054688 24.382812zm168 102.03125v-60.0625c10.535157 6.226562 16.710938 17.816406 16 30.03125.710938 12.214844-5.464843 23.804688-16 30.03125zm0 0"/></svg>